# MagicaVoxel @ Ephtracy

# material
mtllib Container.mtl
usemtl palette

# normals
vn -1 0 0
vn 1 0 0
vn 0 0 1
vn 0 0 -1
vn 0 -1 0
vn 0 1 0

# texcoords
vt 0.0449219 0.5
vt 0.791016 0.5
vt 0.818359 0.5
vt 0.962891 0.5
vt 0.990234 0.5

# verts
v -6 0 10
v -6 0 -10
v -6 3 10
v -6 3 -10
v -6 4 10
v -6 4 -10
v -6 13 10
v -6 13 -10
v -5 13 10
v -5 13 -10
v -5 14 10
v -5 14 -10
v -1 12 10
v -1 12 9
v -1 12 -9
v -1 12 -10
v -1 13 10
v -1 13 -10
v 1 11 10
v 1 11 9
v 1 11 -9
v 1 11 -10
v 1 12 10
v 1 12 -10
v 5 1 9
v 5 1 -9
v 5 3 9
v 5 3 -9
v 5 4 9
v 5 4 -9
v 5 5 3
v 5 5 -2
v 5 6 -3
v 5 6 -8
v 5 8 3
v 5 8 -2
v 5 8 -3
v 5 8 -8
v 5 9 9
v 5 9 -9
v 5 10 10
v 5 10 9
v 5 10 -9
v 5 10 -10
v 5 11 10
v 5 11 -10
v -5 1 9
v -5 1 -9
v -5 3 9
v -5 3 -9
v -5 4 9
v -5 4 -9
v -5 12 9
v -5 12 -9
v -5 13 9
v -5 13 -9
v -4 12 10
v -4 12 9
v -4 12 -9
v -4 12 -10
v -4 13 10
v -4 13 9
v -4 13 -9
v -4 13 -10
v -1 11 10
v -1 11 9
v -1 11 -9
v -1 11 -10
v -1 12 10
v -1 12 9
v -1 12 -9
v -1 12 -10
v 0 13 10
v 0 13 -10
v 0 14 10
v 0 14 -10
v 1 10 10
v 1 10 9
v 1 10 -9
v 1 10 -10
v 1 11 10
v 1 11 9
v 1 11 -9
v 1 11 -10
v 2 12 10
v 2 12 -10
v 2 13 10
v 2 13 -10
v 5 9 10
v 5 9 9
v 5 9 -9
v 5 9 -10
v 5 10 10
v 5 10 9
v 5 10 -9
v 5 10 -10
v 5 11 10
v 5 11 -10
v 5 12 10
v 5 12 -10
v 6 0 10
v 6 0 -10
v 6 3 10
v 6 3 -10
v 6 4 10
v 6 4 -10
v 6 5 3
v 6 5 -2
v 6 6 -3
v 6 6 -8
v 6 8 3
v 6 8 -2
v 6 8 -3
v 6 8 -8
v 6 9 10
v 6 9 -10
v 6 10 10
v 6 10 -10
v 6 11 10
v 6 11 -10
v -6 0 10
v -6 3 10
v -6 4 10
v -6 13 10
v -5 12 10
v -5 13 10
v -5 14 10
v -4 12 10
v -4 13 10
v -1 11 10
v -1 12 10
v -1 13 10
v 0 13 10
v 0 14 10
v 1 10 10
v 1 11 10
v 1 12 10
v 2 12 10
v 2 13 10
v 5 9 10
v 5 10 10
v 5 11 10
v 5 12 10
v 6 0 10
v 6 3 10
v 6 4 10
v 6 9 10
v 6 10 10
v 6 11 10
v -5 1 -9
v -5 3 -9
v -5 4 -9
v -5 12 -9
v -5 13 -9
v -4 12 -9
v -4 13 -9
v -1 11 -9
v -1 12 -9
v 1 10 -9
v 1 11 -9
v 5 1 -9
v 5 3 -9
v 5 4 -9
v 5 9 -9
v 5 10 -9
v -5 1 9
v -5 3 9
v -5 4 9
v -5 12 9
v -5 13 9
v -4 12 9
v -4 13 9
v -1 11 9
v -1 12 9
v 1 10 9
v 1 11 9
v 5 1 9
v 5 3 9
v 5 4 9
v 5 9 9
v 5 10 9
v -6 0 -10
v -6 3 -10
v -6 4 -10
v -6 13 -10
v -5 12 -10
v -5 13 -10
v -5 14 -10
v -4 12 -10
v -4 13 -10
v -1 11 -10
v -1 12 -10
v -1 13 -10
v 0 13 -10
v 0 14 -10
v 1 10 -10
v 1 11 -10
v 1 12 -10
v 2 12 -10
v 2 13 -10
v 5 9 -10
v 5 10 -10
v 5 11 -10
v 5 12 -10
v 6 0 -10
v 6 3 -10
v 6 4 -10
v 6 9 -10
v 6 10 -10
v 6 11 -10
v -6 0 10
v 6 0 10
v -6 0 -10
v 6 0 -10
v 5 10 10
v 6 10 10
v 5 10 9
v 5 10 -9
v 5 10 -10
v 6 10 -10
v 1 11 10
v 5 11 10
v 1 11 9
v 1 11 -9
v 1 11 -10
v 5 11 -10
v -1 12 10
v 1 12 10
v -1 12 9
v -1 12 -9
v -1 12 -10
v 1 12 -10
v -4 13 10
v -1 13 10
v -5 13 9
v -4 13 9
v -5 13 -9
v -4 13 -9
v -4 13 -10
v -1 13 -10
v -5 1 9
v 5 1 9
v -5 1 -9
v 5 1 -9
v 5 9 10
v 6 9 10
v 5 9 9
v 5 9 -9
v 5 9 -10
v 6 9 -10
v 1 10 10
v 5 10 10
v 1 10 9
v 5 10 9
v 1 10 -9
v 5 10 -9
v 1 10 -10
v 5 10 -10
v -1 11 10
v 1 11 10
v 5 11 10
v 6 11 10
v -1 11 9
v 1 11 9
v -1 11 -9
v 1 11 -9
v -1 11 -10
v 1 11 -10
v 5 11 -10
v 6 11 -10
v -4 12 10
v -1 12 10
v 2 12 10
v 5 12 10
v -4 12 9
v -1 12 9
v -4 12 -9
v -1 12 -9
v -4 12 -10
v -1 12 -10
v 2 12 -10
v 5 12 -10
v -6 13 10
v -5 13 10
v 0 13 10
v 2 13 10
v -6 13 -10
v -5 13 -10
v 0 13 -10
v 2 13 -10
v -5 14 10
v 0 14 10
v -5 14 -10
v 0 14 -10

# faces
f 3/2/1 2/2/1 1/2/1
f 4/2/1 2/2/1 3/2/1
f 5/3/1 4/3/1 3/3/1
f 6/3/1 4/3/1 5/3/1
f 7/2/1 6/2/1 5/2/1
f 8/2/1 6/2/1 7/2/1
f 11/5/1 10/5/1 9/5/1
f 12/5/1 10/5/1 11/5/1
f 17/5/1 14/5/1 13/5/1
f 17/5/1 16/5/1 15/5/1
f 17/5/1 15/5/1 14/5/1
f 18/5/1 16/5/1 17/5/1
f 23/5/1 20/5/1 19/5/1
f 23/5/1 22/5/1 21/5/1
f 23/5/1 21/5/1 20/5/1
f 24/5/1 22/5/1 23/5/1
f 27/2/1 26/2/1 25/2/1
f 28/2/1 26/2/1 27/2/1
f 29/3/1 28/3/1 27/3/1
f 30/3/1 28/3/1 29/3/1
f 31/2/1 30/2/1 29/2/1
f 32/2/1 30/2/1 31/2/1
f 33/2/1 30/2/1 32/2/1
f 34/2/1 30/2/1 33/2/1
f 35/2/1 31/2/1 29/2/1
f 35/4/1 32/4/1 31/4/1
f 36/2/1 33/2/1 32/2/1
f 36/4/1 32/4/1 35/4/1
f 37/1/1 34/1/1 33/1/1
f 37/2/1 33/2/1 36/2/1
f 38/2/1 30/2/1 34/2/1
f 38/1/1 34/1/1 37/1/1
f 39/2/1 37/2/1 36/2/1
f 39/2/1 36/2/1 35/2/1
f 39/2/1 38/2/1 37/2/1
f 39/2/1 35/2/1 29/2/1
f 40/2/1 30/2/1 38/2/1
f 40/2/1 38/2/1 39/2/1
f 45/5/1 43/5/1 42/5/1
f 45/5/1 44/5/1 43/5/1
f 45/5/1 42/5/1 41/5/1
f 46/5/1 44/5/1 45/5/1
f 47/2/2 48/2/2 49/2/2
f 49/2/2 48/2/2 50/2/2
f 49/3/2 50/3/2 51/3/2
f 51/3/2 50/3/2 52/3/2
f 51/2/2 52/2/2 53/2/2
f 53/2/2 52/2/2 54/2/2
f 53/2/2 54/2/2 55/2/2
f 55/2/2 54/2/2 56/2/2
f 57/5/2 58/5/2 61/5/2
f 61/5/2 58/5/2 62/5/2
f 59/5/2 60/5/2 63/5/2
f 63/5/2 60/5/2 64/5/2
f 65/2/2 66/2/2 69/2/2
f 69/2/2 66/2/2 70/2/2
f 67/2/2 68/2/2 71/2/2
f 71/2/2 68/2/2 72/2/2
f 73/5/2 74/5/2 75/5/2
f 75/5/2 74/5/2 76/5/2
f 77/2/2 78/2/2 81/2/2
f 81/2/2 78/2/2 82/2/2
f 79/2/2 80/2/2 83/2/2
f 83/2/2 80/2/2 84/2/2
f 85/5/2 86/5/2 87/5/2
f 87/5/2 86/5/2 88/5/2
f 89/2/2 90/2/2 93/2/2
f 93/2/2 90/2/2 94/2/2
f 91/2/2 92/2/2 95/2/2
f 95/2/2 92/2/2 96/2/2
f 97/5/2 98/5/2 99/5/2
f 99/5/2 98/5/2 100/5/2
f 101/2/2 102/2/2 103/2/2
f 103/2/2 102/2/2 104/2/2
f 103/3/2 104/3/2 105/3/2
f 105/3/2 104/3/2 106/3/2
f 105/2/2 106/2/2 107/2/2
f 107/2/2 106/2/2 108/2/2
f 108/2/2 106/2/2 109/2/2
f 109/2/2 106/2/2 110/2/2
f 105/2/2 107/2/2 111/2/2
f 107/4/2 108/4/2 111/4/2
f 108/2/2 109/2/2 112/2/2
f 111/4/2 108/4/2 112/4/2
f 109/1/2 110/1/2 113/1/2
f 112/2/2 109/2/2 113/2/2
f 110/2/2 106/2/2 114/2/2
f 113/1/2 110/1/2 114/1/2
f 112/2/2 113/2/2 115/2/2
f 111/2/2 112/2/2 115/2/2
f 113/2/2 114/2/2 115/2/2
f 105/2/2 111/2/2 115/2/2
f 114/2/2 106/2/2 116/2/2
f 115/2/2 114/2/2 116/2/2
f 117/5/2 118/5/2 119/5/2
f 119/5/2 118/5/2 120/5/2
f 125/2/3 124/2/3 123/2/3
f 126/2/3 124/2/3 125/2/3
f 128/2/3 125/2/3 123/2/3
f 128/5/3 127/5/3 126/5/3
f 128/5/3 126/5/3 125/5/3
f 129/5/3 127/5/3 128/5/3
f 130/2/3 128/2/3 123/2/3
f 131/2/3 128/2/3 130/2/3
f 132/5/3 127/5/3 129/5/3
f 133/5/3 132/5/3 131/5/3
f 133/5/3 127/5/3 132/5/3
f 134/5/3 127/5/3 133/5/3
f 135/2/3 130/2/3 123/2/3
f 136/2/3 130/2/3 135/2/3
f 137/5/3 133/5/3 131/5/3
f 138/5/3 137/5/3 136/5/3
f 138/5/3 133/5/3 137/5/3
f 139/5/3 133/5/3 138/5/3
f 140/2/3 135/2/3 123/2/3
f 141/2/3 135/2/3 140/2/3
f 142/5/3 138/5/3 136/5/3
f 143/5/3 138/5/3 142/5/3
f 144/2/3 122/2/3 121/2/3
f 145/3/3 123/3/3 122/3/3
f 145/2/3 122/2/3 144/2/3
f 146/2/3 140/2/3 123/2/3
f 146/3/3 123/3/3 145/3/3
f 147/2/3 140/2/3 146/2/3
f 148/5/3 142/5/3 141/5/3
f 149/5/3 142/5/3 148/5/3
f 155/2/3 153/2/3 152/2/3
f 155/5/3 154/5/3 153/5/3
f 156/5/3 154/5/3 155/5/3
f 157/2/3 155/2/3 152/2/3
f 158/2/3 155/2/3 157/2/3
f 159/2/3 157/2/3 152/2/3
f 160/2/3 157/2/3 159/2/3
f 161/2/3 151/2/3 150/2/3
f 162/3/3 152/3/3 151/3/3
f 162/2/3 151/2/3 161/2/3
f 163/2/3 159/2/3 152/2/3
f 163/3/3 152/3/3 162/3/3
f 164/2/3 159/2/3 163/2/3
f 165/2/3 159/2/3 164/2/3
f 168/2/4 169/2/4 171/2/4
f 169/5/4 170/5/4 171/5/4
f 171/5/4 170/5/4 172/5/4
f 168/2/4 171/2/4 173/2/4
f 173/2/4 171/2/4 174/2/4
f 168/2/4 173/2/4 175/2/4
f 175/2/4 173/2/4 176/2/4
f 166/2/4 167/2/4 177/2/4
f 167/3/4 168/3/4 178/3/4
f 177/2/4 167/2/4 178/2/4
f 168/2/4 175/2/4 179/2/4
f 178/3/4 168/3/4 179/3/4
f 179/2/4 175/2/4 180/2/4
f 180/2/4 175/2/4 181/2/4
f 184/2/4 185/2/4 186/2/4
f 186/2/4 185/2/4 187/2/4
f 184/2/4 186/2/4 189/2/4
f 187/5/4 188/5/4 189/5/4
f 186/5/4 187/5/4 189/5/4
f 189/5/4 188/5/4 190/5/4
f 184/2/4 189/2/4 191/2/4
f 191/2/4 189/2/4 192/2/4
f 190/5/4 188/5/4 193/5/4
f 192/5/4 193/5/4 194/5/4
f 193/5/4 188/5/4 194/5/4
f 194/5/4 188/5/4 195/5/4
f 184/2/4 191/2/4 196/2/4
f 196/2/4 191/2/4 197/2/4
f 192/5/4 194/5/4 198/5/4
f 197/5/4 198/5/4 199/5/4
f 198/5/4 194/5/4 199/5/4
f 199/5/4 194/5/4 200/5/4
f 184/2/4 196/2/4 201/2/4
f 201/2/4 196/2/4 202/2/4
f 197/5/4 199/5/4 203/5/4
f 203/5/4 199/5/4 204/5/4
f 182/2/4 183/2/4 205/2/4
f 183/3/4 184/3/4 206/3/4
f 205/2/4 183/2/4 206/2/4
f 184/2/4 201/2/4 207/2/4
f 206/3/4 184/3/4 207/3/4
f 207/2/4 201/2/4 208/2/4
f 202/5/4 203/5/4 209/5/4
f 209/5/4 203/5/4 210/5/4
f 213/2/5 212/2/5 211/2/5
f 214/2/5 212/2/5 213/2/5
f 217/5/5 216/5/5 215/5/5
f 218/5/5 216/5/5 217/5/5
f 219/5/5 216/5/5 218/5/5
f 220/5/5 216/5/5 219/5/5
f 223/5/5 222/5/5 221/5/5
f 224/5/5 222/5/5 223/5/5
f 225/5/5 222/5/5 224/5/5
f 226/5/5 222/5/5 225/5/5
f 229/5/5 228/5/5 227/5/5
f 230/5/5 228/5/5 229/5/5
f 231/5/5 228/5/5 230/5/5
f 232/5/5 228/5/5 231/5/5
f 236/5/5 234/5/5 233/5/5
f 237/5/5 236/5/5 235/5/5
f 238/5/5 234/5/5 236/5/5
f 238/5/5 236/5/5 237/5/5
f 239/5/5 234/5/5 238/5/5
f 240/5/5 234/5/5 239/5/5
f 241/2/6 242/2/6 243/2/6
f 243/2/6 242/2/6 244/2/6
f 245/2/6 246/2/6 247/2/6
f 247/2/6 246/2/6 248/2/6
f 248/2/6 246/2/6 249/2/6
f 249/2/6 246/2/6 250/2/6
f 251/2/6 252/2/6 253/2/6
f 253/2/6 252/2/6 254/2/6
f 255/2/6 256/2/6 257/2/6
f 257/2/6 256/2/6 258/2/6
f 259/2/6 260/2/6 263/2/6
f 263/2/6 260/2/6 264/2/6
f 265/2/6 266/2/6 267/2/6
f 267/2/6 266/2/6 268/2/6
f 261/5/6 262/5/6 269/5/6
f 269/5/6 262/5/6 270/5/6
f 271/2/6 272/2/6 275/2/6
f 275/2/6 272/2/6 276/2/6
f 277/2/6 278/2/6 279/2/6
f 279/2/6 278/2/6 280/2/6
f 273/5/6 274/5/6 281/5/6
f 281/5/6 274/5/6 282/5/6
f 283/2/6 284/2/6 287/2/6
f 287/2/6 284/2/6 288/2/6
f 285/5/6 286/5/6 289/5/6
f 289/5/6 286/5/6 290/5/6
f 291/5/6 292/5/6 293/5/6
f 293/5/6 292/5/6 294/5/6
