# MagicaVoxel @ Ephtracy

# material
mtllib PushBallArena.mtl
usemtl palette

# normals
vn -1 0 0
vn 1 0 0
vn 0 0 1
vn 0 0 -1
vn 0 -1 0
vn 0 1 0

# texcoords
vt 0.0175781 0.5
vt 0.443359 0.5
vt 0.826172 0.5
vt 0.841797 0.5
vt 0.923828 0.5
vt 0.958984 0.5

# verts
v -16.5 0 4.5
v -16.5 0 1.5
v -16.5 0 0.5
v -16.5 0 -4.5
v -16.5 1 4.5
v -16.5 1 1.5
v -16.5 1 0.5
v -16.5 1 -4.5
v -15.5 0 6.5
v -15.5 0 4.5
v -15.5 0 -4.5
v -15.5 0 -6.5
v -15.5 1 6.5
v -15.5 1 4.5
v -15.5 1 -4.5
v -15.5 1 -6.5
v -14.5 0 8.5
v -14.5 0 6.5
v -14.5 0 -6.5
v -14.5 0 -8.5
v -14.5 1 8.5
v -14.5 1 6.5
v -14.5 1 -6.5
v -14.5 1 -8.5
v -13.5 0 10.5
v -13.5 0 8.5
v -13.5 0 -8.5
v -13.5 0 -10.5
v -13.5 1 10.5
v -13.5 1 8.5
v -13.5 1 -8.5
v -13.5 1 -10.5
v -12.5 0 11.5
v -12.5 0 10.5
v -12.5 0 -10.5
v -12.5 0 -11.5
v -12.5 1 11.5
v -12.5 1 10.5
v -12.5 1 -10.5
v -12.5 1 -11.5
v -11.5 0 12.5
v -11.5 0 11.5
v -11.5 0 -11.5
v -11.5 0 -12.5
v -11.5 1 12.5
v -11.5 1 11.5
v -11.5 1 -11.5
v -11.5 1 -12.5
v -10.5 0 13.5
v -10.5 0 12.5
v -10.5 0 -12.5
v -10.5 0 -13.5
v -10.5 1 13.5
v -10.5 1 12.5
v -10.5 1 -12.5
v -10.5 1 -13.5
v -8.5 0 14.5
v -8.5 0 13.5
v -8.5 0 -13.5
v -8.5 0 -14.5
v -8.5 1 14.5
v -8.5 1 13.5
v -8.5 1 -13.5
v -8.5 1 -14.5
v -6.5 0 15.5
v -6.5 0 14.5
v -6.5 0 -14.5
v -6.5 0 -15.5
v -6.5 1 15.5
v -6.5 1 14.5
v -6.5 1 -14.5
v -6.5 1 -15.5
v -4.5 0 16.5
v -4.5 0 15.5
v -4.5 0 -15.5
v -4.5 0 -16.5
v -4.5 1 16.5
v -4.5 1 15.5
v -4.5 1 -15.5
v -4.5 1 -16.5
v 0.5 0 1.5
v 0.5 0 0.5
v 0.5 1 1.5
v 0.5 1 0.5
v -0.5 0 1.5
v -0.5 0 0.5
v -0.5 1 1.5
v -0.5 1 0.5
v 4.5 0 16.5
v 4.5 0 15.5
v 4.5 0 -15.5
v 4.5 0 -16.5
v 4.5 1 16.5
v 4.5 1 15.5
v 4.5 1 -15.5
v 4.5 1 -16.5
v 6.5 0 15.5
v 6.5 0 14.5
v 6.5 0 -14.5
v 6.5 0 -15.5
v 6.5 1 15.5
v 6.5 1 14.5
v 6.5 1 -14.5
v 6.5 1 -15.5
v 8.5 0 14.5
v 8.5 0 13.5
v 8.5 0 -13.5
v 8.5 0 -14.5
v 8.5 1 14.5
v 8.5 1 13.5
v 8.5 1 -13.5
v 8.5 1 -14.5
v 10.5 0 13.5
v 10.5 0 12.5
v 10.5 0 -12.5
v 10.5 0 -13.5
v 10.5 1 13.5
v 10.5 1 12.5
v 10.5 1 -12.5
v 10.5 1 -13.5
v 11.5 0 12.5
v 11.5 0 11.5
v 11.5 0 -11.5
v 11.5 0 -12.5
v 11.5 1 12.5
v 11.5 1 11.5
v 11.5 1 -11.5
v 11.5 1 -12.5
v 12.5 0 11.5
v 12.5 0 10.5
v 12.5 0 -10.5
v 12.5 0 -11.5
v 12.5 1 11.5
v 12.5 1 10.5
v 12.5 1 -10.5
v 12.5 1 -11.5
v 13.5 0 10.5
v 13.5 0 8.5
v 13.5 0 -8.5
v 13.5 0 -10.5
v 13.5 1 10.5
v 13.5 1 8.5
v 13.5 1 -8.5
v 13.5 1 -10.5
v 14.5 0 8.5
v 14.5 0 6.5
v 14.5 0 -6.5
v 14.5 0 -8.5
v 14.5 1 8.5
v 14.5 1 6.5
v 14.5 1 -6.5
v 14.5 1 -8.5
v 15.5 0 6.5
v 15.5 0 4.5
v 15.5 0 -4.5
v 15.5 0 -6.5
v 15.5 1 6.5
v 15.5 1 4.5
v 15.5 1 -4.5
v 15.5 1 -6.5
v 16.5 0 4.5
v 16.5 0 1.5
v 16.5 0 0.5
v 16.5 0 -0.5
v 16.5 0 -4.5
v 16.5 1 4.5
v 16.5 1 1.5
v 16.5 1 0.5
v 16.5 1 -0.5
v 16.5 1 -4.5
v -4.5 0 16.5
v -4.5 1 16.5
v -0.5 0 16.5
v -0.5 1 16.5
v 0.5 0 16.5
v 0.5 1 16.5
v 4.5 0 16.5
v 4.5 1 16.5
v -6.5 0 15.5
v -6.5 1 15.5
v -4.5 0 15.5
v -4.5 1 15.5
v 4.5 0 15.5
v 4.5 1 15.5
v 6.5 0 15.5
v 6.5 1 15.5
v -8.5 0 14.5
v -8.5 1 14.5
v -6.5 0 14.5
v -6.5 1 14.5
v 6.5 0 14.5
v 6.5 1 14.5
v 8.5 0 14.5
v 8.5 1 14.5
v -10.5 0 13.5
v -10.5 1 13.5
v -8.5 0 13.5
v -8.5 1 13.5
v 8.5 0 13.5
v 8.5 1 13.5
v 10.5 0 13.5
v 10.5 1 13.5
v -11.5 0 12.5
v -11.5 1 12.5
v -10.5 0 12.5
v -10.5 1 12.5
v 10.5 0 12.5
v 10.5 1 12.5
v 11.5 0 12.5
v 11.5 1 12.5
v -12.5 0 11.5
v -12.5 1 11.5
v -11.5 0 11.5
v -11.5 1 11.5
v 11.5 0 11.5
v 11.5 1 11.5
v 12.5 0 11.5
v 12.5 1 11.5
v -13.5 0 10.5
v -13.5 1 10.5
v -12.5 0 10.5
v -12.5 1 10.5
v 12.5 0 10.5
v 12.5 1 10.5
v 13.5 0 10.5
v 13.5 1 10.5
v -14.5 0 8.5
v -14.5 1 8.5
v -13.5 0 8.5
v -13.5 1 8.5
v 13.5 0 8.5
v 13.5 1 8.5
v 14.5 0 8.5
v 14.5 1 8.5
v -15.5 0 6.5
v -15.5 1 6.5
v -14.5 0 6.5
v -14.5 1 6.5
v 14.5 0 6.5
v 14.5 1 6.5
v 15.5 0 6.5
v 15.5 1 6.5
v -16.5 0 4.5
v -16.5 1 4.5
v -15.5 0 4.5
v -15.5 1 4.5
v 15.5 0 4.5
v 15.5 1 4.5
v 16.5 0 4.5
v 16.5 1 4.5
v -0.5 0 0.5
v -0.5 1 0.5
v 0.5 0 0.5
v 0.5 1 0.5
v -0.5 0 1.5
v -0.5 1 1.5
v 0.5 0 1.5
v 0.5 1 1.5
v -16.5 0 -4.5
v -16.5 1 -4.5
v -15.5 0 -4.5
v -15.5 1 -4.5
v 15.5 0 -4.5
v 15.5 1 -4.5
v 16.5 0 -4.5
v 16.5 1 -4.5
v -15.5 0 -6.5
v -15.5 1 -6.5
v -14.5 0 -6.5
v -14.5 1 -6.5
v 14.5 0 -6.5
v 14.5 1 -6.5
v 15.5 0 -6.5
v 15.5 1 -6.5
v -14.5 0 -8.5
v -14.5 1 -8.5
v -13.5 0 -8.5
v -13.5 1 -8.5
v 13.5 0 -8.5
v 13.5 1 -8.5
v 14.5 0 -8.5
v 14.5 1 -8.5
v -13.5 0 -10.5
v -13.5 1 -10.5
v -12.5 0 -10.5
v -12.5 1 -10.5
v 12.5 0 -10.5
v 12.5 1 -10.5
v 13.5 0 -10.5
v 13.5 1 -10.5
v -12.5 0 -11.5
v -12.5 1 -11.5
v -11.5 0 -11.5
v -11.5 1 -11.5
v 11.5 0 -11.5
v 11.5 1 -11.5
v 12.5 0 -11.5
v 12.5 1 -11.5
v -11.5 0 -12.5
v -11.5 1 -12.5
v -10.5 0 -12.5
v -10.5 1 -12.5
v 10.5 0 -12.5
v 10.5 1 -12.5
v 11.5 0 -12.5
v 11.5 1 -12.5
v -10.5 0 -13.5
v -10.5 1 -13.5
v -8.5 0 -13.5
v -8.5 1 -13.5
v 8.5 0 -13.5
v 8.5 1 -13.5
v 10.5 0 -13.5
v 10.5 1 -13.5
v -8.5 0 -14.5
v -8.5 1 -14.5
v -6.5 0 -14.5
v -6.5 1 -14.5
v 6.5 0 -14.5
v 6.5 1 -14.5
v 8.5 0 -14.5
v 8.5 1 -14.5
v -6.5 0 -15.5
v -6.5 1 -15.5
v -4.5 0 -15.5
v -4.5 1 -15.5
v 4.5 0 -15.5
v 4.5 1 -15.5
v 6.5 0 -15.5
v 6.5 1 -15.5
v -4.5 0 -16.5
v -4.5 1 -16.5
v -0.5 0 -16.5
v -0.5 1 -16.5
v 0.5 0 -16.5
v 0.5 1 -16.5
v 1.5 0 -16.5
v 1.5 1 -16.5
v 4.5 0 -16.5
v 4.5 1 -16.5
v -4.5 0 16.5
v -0.5 0 16.5
v 0.5 0 16.5
v 4.5 0 16.5
v -6.5 0 15.5
v -4.5 0 15.5
v 4.5 0 15.5
v 6.5 0 15.5
v -8.5 0 14.5
v -6.5 0 14.5
v 6.5 0 14.5
v 8.5 0 14.5
v -10.5 0 13.5
v -8.5 0 13.5
v 8.5 0 13.5
v 10.5 0 13.5
v -11.5 0 12.5
v -10.5 0 12.5
v 10.5 0 12.5
v 11.5 0 12.5
v -12.5 0 11.5
v -11.5 0 11.5
v 11.5 0 11.5
v 12.5 0 11.5
v -13.5 0 10.5
v -12.5 0 10.5
v 12.5 0 10.5
v 13.5 0 10.5
v -14.5 0 8.5
v -13.5 0 8.5
v 13.5 0 8.5
v 14.5 0 8.5
v -15.5 0 6.5
v -14.5 0 6.5
v 14.5 0 6.5
v 15.5 0 6.5
v -16.5 0 4.5
v -15.5 0 4.5
v 15.5 0 4.5
v 16.5 0 4.5
v -16.5 0 1.5
v -0.5 0 1.5
v 0.5 0 1.5
v 16.5 0 1.5
v -16.5 0 0.5
v -0.5 0 0.5
v 0.5 0 0.5
v 16.5 0 0.5
v 1.5 0 -0.5
v 16.5 0 -0.5
v -16.5 0 -4.5
v -15.5 0 -4.5
v 15.5 0 -4.5
v 16.5 0 -4.5
v -15.5 0 -6.5
v -14.5 0 -6.5
v 14.5 0 -6.5
v 15.5 0 -6.5
v -14.5 0 -8.5
v -13.5 0 -8.5
v 13.5 0 -8.5
v 14.5 0 -8.5
v -13.5 0 -10.5
v -12.5 0 -10.5
v 12.5 0 -10.5
v 13.5 0 -10.5
v -12.5 0 -11.5
v -11.5 0 -11.5
v 11.5 0 -11.5
v 12.5 0 -11.5
v -11.5 0 -12.5
v -10.5 0 -12.5
v 10.5 0 -12.5
v 11.5 0 -12.5
v -10.5 0 -13.5
v -8.5 0 -13.5
v 8.5 0 -13.5
v 10.5 0 -13.5
v -8.5 0 -14.5
v -6.5 0 -14.5
v 6.5 0 -14.5
v 8.5 0 -14.5
v -6.5 0 -15.5
v -4.5 0 -15.5
v 4.5 0 -15.5
v 6.5 0 -15.5
v -4.5 0 -16.5
v -0.5 0 -16.5
v 0.5 0 -16.5
v 1.5 0 -16.5
v 4.5 0 -16.5
v -4.5 1 16.5
v -0.5 1 16.5
v 0.5 1 16.5
v 4.5 1 16.5
v -6.5 1 15.5
v -4.5 1 15.5
v 4.5 1 15.5
v 6.5 1 15.5
v -8.5 1 14.5
v -6.5 1 14.5
v 6.5 1 14.5
v 8.5 1 14.5
v -10.5 1 13.5
v -8.5 1 13.5
v 8.5 1 13.5
v 10.5 1 13.5
v -11.5 1 12.5
v -10.5 1 12.5
v 10.5 1 12.5
v 11.5 1 12.5
v -12.5 1 11.5
v -11.5 1 11.5
v 11.5 1 11.5
v 12.5 1 11.5
v -13.5 1 10.5
v -12.5 1 10.5
v 12.5 1 10.5
v 13.5 1 10.5
v -14.5 1 8.5
v -13.5 1 8.5
v 13.5 1 8.5
v 14.5 1 8.5
v -15.5 1 6.5
v -14.5 1 6.5
v 14.5 1 6.5
v 15.5 1 6.5
v -16.5 1 4.5
v -15.5 1 4.5
v 15.5 1 4.5
v 16.5 1 4.5
v -16.5 1 1.5
v -0.5 1 1.5
v 0.5 1 1.5
v 16.5 1 1.5
v -16.5 1 0.5
v -0.5 1 0.5
v 0.5 1 0.5
v 16.5 1 0.5
v 1.5 1 -0.5
v 16.5 1 -0.5
v -16.5 1 -4.5
v -15.5 1 -4.5
v 15.5 1 -4.5
v 16.5 1 -4.5
v -15.5 1 -6.5
v -14.5 1 -6.5
v 14.5 1 -6.5
v 15.5 1 -6.5
v -14.5 1 -8.5
v -13.5 1 -8.5
v 13.5 1 -8.5
v 14.5 1 -8.5
v -13.5 1 -10.5
v -12.5 1 -10.5
v 12.5 1 -10.5
v 13.5 1 -10.5
v -12.5 1 -11.5
v -11.5 1 -11.5
v 11.5 1 -11.5
v 12.5 1 -11.5
v -11.5 1 -12.5
v -10.5 1 -12.5
v 10.5 1 -12.5
v 11.5 1 -12.5
v -10.5 1 -13.5
v -8.5 1 -13.5
v 8.5 1 -13.5
v 10.5 1 -13.5
v -8.5 1 -14.5
v -6.5 1 -14.5
v 6.5 1 -14.5
v 8.5 1 -14.5
v -6.5 1 -15.5
v -4.5 1 -15.5
v 4.5 1 -15.5
v 6.5 1 -15.5
v -4.5 1 -16.5
v -0.5 1 -16.5
v 0.5 1 -16.5
v 1.5 1 -16.5
v 4.5 1 -16.5

# faces
f 5/2/1 2/2/1 1/2/1
f 6/6/1 3/6/1 2/6/1
f 6/2/1 2/2/1 5/2/1
f 7/4/1 4/4/1 3/4/1
f 7/6/1 3/6/1 6/6/1
f 8/4/1 4/4/1 7/4/1
f 13/2/1 10/2/1 9/2/1
f 14/2/1 10/2/1 13/2/1
f 15/4/1 12/4/1 11/4/1
f 16/4/1 12/4/1 15/4/1
f 21/2/1 18/2/1 17/2/1
f 22/2/1 18/2/1 21/2/1
f 23/4/1 20/4/1 19/4/1
f 24/4/1 20/4/1 23/4/1
f 29/2/1 26/2/1 25/2/1
f 30/2/1 26/2/1 29/2/1
f 31/4/1 28/4/1 27/4/1
f 32/4/1 28/4/1 31/4/1
f 37/2/1 34/2/1 33/2/1
f 38/2/1 34/2/1 37/2/1
f 39/4/1 36/4/1 35/4/1
f 40/4/1 36/4/1 39/4/1
f 45/2/1 42/2/1 41/2/1
f 46/2/1 42/2/1 45/2/1
f 47/4/1 44/4/1 43/4/1
f 48/4/1 44/4/1 47/4/1
f 53/2/1 50/2/1 49/2/1
f 54/2/1 50/2/1 53/2/1
f 55/4/1 52/4/1 51/4/1
f 56/4/1 52/4/1 55/4/1
f 61/2/1 58/2/1 57/2/1
f 62/2/1 58/2/1 61/2/1
f 63/4/1 60/4/1 59/4/1
f 64/4/1 60/4/1 63/4/1
f 69/2/1 66/2/1 65/2/1
f 70/2/1 66/2/1 69/2/1
f 71/4/1 68/4/1 67/4/1
f 72/4/1 68/4/1 71/4/1
f 77/2/1 74/2/1 73/2/1
f 78/2/1 74/2/1 77/2/1
f 79/4/1 76/4/1 75/4/1
f 80/4/1 76/4/1 79/4/1
f 83/6/1 82/6/1 81/6/1
f 84/6/1 82/6/1 83/6/1
f 85/6/2 86/6/2 87/6/2
f 87/6/2 86/6/2 88/6/2
f 89/1/2 90/1/2 93/1/2
f 93/1/2 90/1/2 94/1/2
f 91/3/2 92/3/2 95/3/2
f 95/3/2 92/3/2 96/3/2
f 97/1/2 98/1/2 101/1/2
f 101/1/2 98/1/2 102/1/2
f 99/3/2 100/3/2 103/3/2
f 103/3/2 100/3/2 104/3/2
f 105/1/2 106/1/2 109/1/2
f 109/1/2 106/1/2 110/1/2
f 107/3/2 108/3/2 111/3/2
f 111/3/2 108/3/2 112/3/2
f 113/1/2 114/1/2 117/1/2
f 117/1/2 114/1/2 118/1/2
f 115/3/2 116/3/2 119/3/2
f 119/3/2 116/3/2 120/3/2
f 121/1/2 122/1/2 125/1/2
f 125/1/2 122/1/2 126/1/2
f 123/3/2 124/3/2 127/3/2
f 127/3/2 124/3/2 128/3/2
f 129/1/2 130/1/2 133/1/2
f 133/1/2 130/1/2 134/1/2
f 131/3/2 132/3/2 135/3/2
f 135/3/2 132/3/2 136/3/2
f 137/1/2 138/1/2 141/1/2
f 141/1/2 138/1/2 142/1/2
f 139/3/2 140/3/2 143/3/2
f 143/3/2 140/3/2 144/3/2
f 145/1/2 146/1/2 149/1/2
f 149/1/2 146/1/2 150/1/2
f 147/3/2 148/3/2 151/3/2
f 151/3/2 148/3/2 152/3/2
f 153/1/2 154/1/2 157/1/2
f 157/1/2 154/1/2 158/1/2
f 155/3/2 156/3/2 159/3/2
f 159/3/2 156/3/2 160/3/2
f 161/1/2 162/1/2 166/1/2
f 162/6/2 163/6/2 167/6/2
f 166/1/2 162/1/2 167/1/2
f 163/5/2 164/5/2 168/5/2
f 167/6/2 163/6/2 168/6/2
f 164/3/2 165/3/2 169/3/2
f 168/5/2 164/5/2 169/5/2
f 169/3/2 165/3/2 170/3/2
f 173/2/3 172/2/3 171/2/3
f 174/2/3 172/2/3 173/2/3
f 175/6/3 174/6/3 173/6/3
f 176/6/3 174/6/3 175/6/3
f 177/1/3 176/1/3 175/1/3
f 178/1/3 176/1/3 177/1/3
f 181/2/3 180/2/3 179/2/3
f 182/2/3 180/2/3 181/2/3
f 185/1/3 184/1/3 183/1/3
f 186/1/3 184/1/3 185/1/3
f 189/2/3 188/2/3 187/2/3
f 190/2/3 188/2/3 189/2/3
f 193/1/3 192/1/3 191/1/3
f 194/1/3 192/1/3 193/1/3
f 197/2/3 196/2/3 195/2/3
f 198/2/3 196/2/3 197/2/3
f 201/1/3 200/1/3 199/1/3
f 202/1/3 200/1/3 201/1/3
f 205/2/3 204/2/3 203/2/3
f 206/2/3 204/2/3 205/2/3
f 209/1/3 208/1/3 207/1/3
f 210/1/3 208/1/3 209/1/3
f 213/2/3 212/2/3 211/2/3
f 214/2/3 212/2/3 213/2/3
f 217/1/3 216/1/3 215/1/3
f 218/1/3 216/1/3 217/1/3
f 221/2/3 220/2/3 219/2/3
f 222/2/3 220/2/3 221/2/3
f 225/1/3 224/1/3 223/1/3
f 226/1/3 224/1/3 225/1/3
f 229/2/3 228/2/3 227/2/3
f 230/2/3 228/2/3 229/2/3
f 233/1/3 232/1/3 231/1/3
f 234/1/3 232/1/3 233/1/3
f 237/2/3 236/2/3 235/2/3
f 238/2/3 236/2/3 237/2/3
f 241/1/3 240/1/3 239/1/3
f 242/1/3 240/1/3 241/1/3
f 245/2/3 244/2/3 243/2/3
f 246/2/3 244/2/3 245/2/3
f 249/1/3 248/1/3 247/1/3
f 250/1/3 248/1/3 249/1/3
f 253/6/3 252/6/3 251/6/3
f 254/6/3 252/6/3 253/6/3
f 255/6/4 256/6/4 257/6/4
f 257/6/4 256/6/4 258/6/4
f 259/4/4 260/4/4 261/4/4
f 261/4/4 260/4/4 262/4/4
f 263/3/4 264/3/4 265/3/4
f 265/3/4 264/3/4 266/3/4
f 267/4/4 268/4/4 269/4/4
f 269/4/4 268/4/4 270/4/4
f 271/3/4 272/3/4 273/3/4
f 273/3/4 272/3/4 274/3/4
f 275/4/4 276/4/4 277/4/4
f 277/4/4 276/4/4 278/4/4
f 279/3/4 280/3/4 281/3/4
f 281/3/4 280/3/4 282/3/4
f 283/4/4 284/4/4 285/4/4
f 285/4/4 284/4/4 286/4/4
f 287/3/4 288/3/4 289/3/4
f 289/3/4 288/3/4 290/3/4
f 291/4/4 292/4/4 293/4/4
f 293/4/4 292/4/4 294/4/4
f 295/3/4 296/3/4 297/3/4
f 297/3/4 296/3/4 298/3/4
f 299/4/4 300/4/4 301/4/4
f 301/4/4 300/4/4 302/4/4
f 303/3/4 304/3/4 305/3/4
f 305/3/4 304/3/4 306/3/4
f 307/4/4 308/4/4 309/4/4
f 309/4/4 308/4/4 310/4/4
f 311/3/4 312/3/4 313/3/4
f 313/3/4 312/3/4 314/3/4
f 315/4/4 316/4/4 317/4/4
f 317/4/4 316/4/4 318/4/4
f 319/3/4 320/3/4 321/3/4
f 321/3/4 320/3/4 322/3/4
f 323/4/4 324/4/4 325/4/4
f 325/4/4 324/4/4 326/4/4
f 327/3/4 328/3/4 329/3/4
f 329/3/4 328/3/4 330/3/4
f 331/4/4 332/4/4 333/4/4
f 333/4/4 332/4/4 334/4/4
f 333/6/4 334/6/4 335/6/4
f 335/6/4 334/6/4 336/6/4
f 335/5/4 336/5/4 337/5/4
f 337/5/4 336/5/4 338/5/4
f 337/3/4 338/3/4 339/3/4
f 339/3/4 338/3/4 340/3/4
f 346/2/5 342/2/5 341/2/5
f 347/1/5 344/1/5 343/1/5
f 350/2/5 346/2/5 345/2/5
f 351/1/5 348/1/5 347/1/5
f 354/2/5 350/2/5 349/2/5
f 355/1/5 352/1/5 351/1/5
f 358/2/5 354/2/5 353/2/5
f 359/1/5 356/1/5 355/1/5
f 362/2/5 358/2/5 357/2/5
f 363/1/5 360/1/5 359/1/5
f 366/2/5 362/2/5 361/2/5
f 367/1/5 364/1/5 363/1/5
f 370/2/5 366/2/5 365/2/5
f 371/1/5 368/1/5 367/1/5
f 374/2/5 370/2/5 369/2/5
f 375/1/5 372/1/5 371/1/5
f 378/2/5 374/2/5 373/2/5
f 379/1/5 376/1/5 375/1/5
f 381/2/5 378/2/5 377/2/5
f 382/6/5 343/6/5 342/6/5
f 382/2/5 378/2/5 381/2/5
f 382/2/5 342/2/5 346/2/5
f 382/2/5 346/2/5 350/2/5
f 382/2/5 374/2/5 378/2/5
f 382/2/5 350/2/5 354/2/5
f 382/2/5 354/2/5 358/2/5
f 382/2/5 370/2/5 374/2/5
f 382/2/5 358/2/5 362/2/5
f 382/2/5 362/2/5 366/2/5
f 382/2/5 366/2/5 370/2/5
f 383/1/5 380/1/5 379/1/5
f 383/6/5 343/6/5 382/6/5
f 383/1/5 379/1/5 375/1/5
f 383/1/5 367/1/5 363/1/5
f 383/1/5 347/1/5 343/1/5
f 383/1/5 351/1/5 347/1/5
f 383/1/5 363/1/5 359/1/5
f 383/1/5 371/1/5 367/1/5
f 383/1/5 375/1/5 371/1/5
f 383/1/5 359/1/5 355/1/5
f 383/1/5 355/1/5 351/1/5
f 384/1/5 380/1/5 383/1/5
f 385/6/5 382/6/5 381/6/5
f 386/6/5 382/6/5 385/6/5
f 387/6/5 384/6/5 383/6/5
f 388/6/5 384/6/5 387/6/5
f 389/5/5 388/5/5 387/5/5
f 390/5/5 388/5/5 389/5/5
f 391/4/5 386/4/5 385/4/5
f 392/4/5 386/4/5 391/4/5
f 393/3/5 390/3/5 389/3/5
f 394/3/5 390/3/5 393/3/5
f 395/4/5 386/4/5 392/4/5
f 396/4/5 386/4/5 395/4/5
f 397/3/5 393/3/5 389/3/5
f 398/3/5 393/3/5 397/3/5
f 399/4/5 386/4/5 396/4/5
f 400/4/5 386/4/5 399/4/5
f 401/3/5 397/3/5 389/3/5
f 402/3/5 397/3/5 401/3/5
f 403/4/5 386/4/5 400/4/5
f 404/4/5 386/4/5 403/4/5
f 405/3/5 401/3/5 389/3/5
f 406/3/5 401/3/5 405/3/5
f 407/4/5 386/4/5 404/4/5
f 408/4/5 386/4/5 407/4/5
f 409/3/5 405/3/5 389/3/5
f 410/3/5 405/3/5 409/3/5
f 411/4/5 386/4/5 408/4/5
f 412/4/5 386/4/5 411/4/5
f 413/3/5 409/3/5 389/3/5
f 414/3/5 409/3/5 413/3/5
f 415/4/5 386/4/5 412/4/5
f 416/4/5 386/4/5 415/4/5
f 417/3/5 413/3/5 389/3/5
f 418/3/5 413/3/5 417/3/5
f 419/4/5 386/4/5 416/4/5
f 420/4/5 386/4/5 419/4/5
f 421/3/5 417/3/5 389/3/5
f 422/3/5 417/3/5 421/3/5
f 423/4/5 386/4/5 420/4/5
f 424/4/5 386/4/5 423/4/5
f 425/3/5 421/3/5 389/3/5
f 426/3/5 421/3/5 425/3/5
f 427/4/5 386/4/5 424/4/5
f 428/6/5 387/6/5 386/6/5
f 428/4/5 386/4/5 427/4/5
f 429/5/5 389/5/5 387/5/5
f 429/6/5 387/6/5 428/6/5
f 430/3/5 425/3/5 389/3/5
f 430/5/5 389/5/5 429/5/5
f 431/3/5 425/3/5 430/3/5
f 432/2/6 433/2/6 437/2/6
f 434/1/6 435/1/6 438/1/6
f 436/2/6 437/2/6 441/2/6
f 438/1/6 439/1/6 442/1/6
f 440/2/6 441/2/6 445/2/6
f 442/1/6 443/1/6 446/1/6
f 444/2/6 445/2/6 449/2/6
f 446/1/6 447/1/6 450/1/6
f 448/2/6 449/2/6 453/2/6
f 450/1/6 451/1/6 454/1/6
f 452/2/6 453/2/6 457/2/6
f 454/1/6 455/1/6 458/1/6
f 456/2/6 457/2/6 461/2/6
f 458/1/6 459/1/6 462/1/6
f 460/2/6 461/2/6 465/2/6
f 462/1/6 463/1/6 466/1/6
f 464/2/6 465/2/6 469/2/6
f 466/1/6 467/1/6 470/1/6
f 468/2/6 469/2/6 472/2/6
f 433/6/6 434/6/6 473/6/6
f 472/2/6 469/2/6 473/2/6
f 437/2/6 433/2/6 473/2/6
f 441/2/6 437/2/6 473/2/6
f 469/2/6 465/2/6 473/2/6
f 445/2/6 441/2/6 473/2/6
f 449/2/6 445/2/6 473/2/6
f 465/2/6 461/2/6 473/2/6
f 453/2/6 449/2/6 473/2/6
f 457/2/6 453/2/6 473/2/6
f 461/2/6 457/2/6 473/2/6
f 470/1/6 471/1/6 474/1/6
f 473/6/6 434/6/6 474/6/6
f 466/1/6 470/1/6 474/1/6
f 454/1/6 458/1/6 474/1/6
f 434/1/6 438/1/6 474/1/6
f 438/1/6 442/1/6 474/1/6
f 450/1/6 454/1/6 474/1/6
f 458/1/6 462/1/6 474/1/6
f 462/1/6 466/1/6 474/1/6
f 446/1/6 450/1/6 474/1/6
f 442/1/6 446/1/6 474/1/6
f 474/1/6 471/1/6 475/1/6
f 472/6/6 473/6/6 476/6/6
f 476/6/6 473/6/6 477/6/6
f 474/6/6 475/6/6 478/6/6
f 478/6/6 475/6/6 479/6/6
f 478/5/6 479/5/6 480/5/6
f 480/5/6 479/5/6 481/5/6
f 476/4/6 477/4/6 482/4/6
f 482/4/6 477/4/6 483/4/6
f 480/3/6 481/3/6 484/3/6
f 484/3/6 481/3/6 485/3/6
f 483/4/6 477/4/6 486/4/6
f 486/4/6 477/4/6 487/4/6
f 480/3/6 484/3/6 488/3/6
f 488/3/6 484/3/6 489/3/6
f 487/4/6 477/4/6 490/4/6
f 490/4/6 477/4/6 491/4/6
f 480/3/6 488/3/6 492/3/6
f 492/3/6 488/3/6 493/3/6
f 491/4/6 477/4/6 494/4/6
f 494/4/6 477/4/6 495/4/6
f 480/3/6 492/3/6 496/3/6
f 496/3/6 492/3/6 497/3/6
f 495/4/6 477/4/6 498/4/6
f 498/4/6 477/4/6 499/4/6
f 480/3/6 496/3/6 500/3/6
f 500/3/6 496/3/6 501/3/6
f 499/4/6 477/4/6 502/4/6
f 502/4/6 477/4/6 503/4/6
f 480/3/6 500/3/6 504/3/6
f 504/3/6 500/3/6 505/3/6
f 503/4/6 477/4/6 506/4/6
f 506/4/6 477/4/6 507/4/6
f 480/3/6 504/3/6 508/3/6
f 508/3/6 504/3/6 509/3/6
f 507/4/6 477/4/6 510/4/6
f 510/4/6 477/4/6 511/4/6
f 480/3/6 508/3/6 512/3/6
f 512/3/6 508/3/6 513/3/6
f 511/4/6 477/4/6 514/4/6
f 514/4/6 477/4/6 515/4/6
f 480/3/6 512/3/6 516/3/6
f 516/3/6 512/3/6 517/3/6
f 515/4/6 477/4/6 518/4/6
f 477/6/6 478/6/6 519/6/6
f 518/4/6 477/4/6 519/4/6
f 478/5/6 480/5/6 520/5/6
f 519/6/6 478/6/6 520/6/6
f 480/3/6 516/3/6 521/3/6
f 520/5/6 480/5/6 521/5/6
f 521/3/6 516/3/6 522/3/6
