# MagicaVoxel @ Ephtracy

# material
mtllib TrashpileArena.mtl
usemtl palette

# normals
vn -1 0 0
vn 1 0 0
vn 0 0 1
vn 0 0 -1
vn 0 -1 0
vn 0 1 0

# texcoords
vt 0.0214844 0.5
vt 0.283203 0.5
vt 0.724609 0.5
vt 0.841797 0.5
vt 0.919922 0.5

# verts
v -20 0 20
v -20 0 11
v -20 0 -11
v -20 0 -20
v -20 3 20
v -20 3 11
v -20 3 -11
v -20 3 -20
v -12 1 19
v -12 1 16
v -12 1 -16
v -12 1 -19
v -12 3 19
v -12 3 16
v -12 3 -16
v -12 3 -19
v 11 1 19
v 11 1 16
v 11 1 -16
v 11 1 -19
v 11 3 19
v 11 3 16
v 11 3 -16
v 11 3 -19
v 16 1 12
v 16 1 11
v 16 1 -11
v 16 1 -12
v 16 3 12
v 16 3 11
v 16 3 -11
v 16 3 -12
v 19 1 19
v 19 1 12
v 19 1 11
v 19 1 -11
v 19 1 -12
v 19 1 -19
v 19 3 19
v 19 3 12
v 19 3 11
v 19 3 -11
v 19 3 -12
v 19 3 -19
v -19 1 19
v -19 1 12
v -19 1 11
v -19 1 -11
v -19 1 -12
v -19 1 -19
v -19 3 19
v -19 3 12
v -19 3 11
v -19 3 -11
v -19 3 -12
v -19 3 -19
v -16 1 12
v -16 1 11
v -16 1 -11
v -16 1 -12
v -16 3 12
v -16 3 11
v -16 3 -11
v -16 3 -12
v -11 1 19
v -11 1 16
v -11 1 -16
v -11 1 -19
v -11 3 19
v -11 3 16
v -11 3 -16
v -11 3 -19
v 12 1 19
v 12 1 16
v 12 1 -16
v 12 1 -19
v 12 3 19
v 12 3 16
v 12 3 -16
v 12 3 -19
v 20 0 20
v 20 0 11
v 20 0 -11
v 20 0 -20
v 20 3 20
v 20 3 11
v 20 3 -11
v 20 3 -20
v -20 0 20
v -20 3 20
v -11 0 20
v -11 3 20
v 11 0 20
v 11 3 20
v 20 0 20
v 20 3 20
v -19 1 12
v -19 3 12
v -16 1 12
v -16 3 12
v 16 1 12
v 16 3 12
v 19 1 12
v 19 3 12
v -19 1 -11
v -19 3 -11
v -16 1 -11
v -16 3 -11
v 16 1 -11
v 16 3 -11
v 19 1 -11
v 19 3 -11
v -12 1 -16
v -12 3 -16
v -11 1 -16
v -11 3 -16
v 11 1 -16
v 11 3 -16
v 12 1 -16
v 12 3 -16
v -19 1 -19
v -19 3 -19
v -12 1 -19
v -12 3 -19
v -11 1 -19
v -11 3 -19
v 11 1 -19
v 11 3 -19
v 12 1 -19
v 12 3 -19
v 19 1 -19
v 19 3 -19
v -19 1 19
v -19 3 19
v -12 1 19
v -12 3 19
v -11 1 19
v -11 3 19
v 11 1 19
v 11 3 19
v 12 1 19
v 12 3 19
v 19 1 19
v 19 3 19
v -12 1 16
v -12 3 16
v -11 1 16
v -11 3 16
v 11 1 16
v 11 3 16
v 12 1 16
v 12 3 16
v -19 1 11
v -19 3 11
v -16 1 11
v -16 3 11
v 16 1 11
v 16 3 11
v 19 1 11
v 19 3 11
v -19 1 -12
v -19 3 -12
v -16 1 -12
v -16 3 -12
v 16 1 -12
v 16 3 -12
v 19 1 -12
v 19 3 -12
v -20 0 -20
v -20 3 -20
v -11 0 -20
v -11 3 -20
v 11 0 -20
v 11 3 -20
v 20 0 -20
v 20 3 -20
v -20 0 20
v -11 0 20
v 11 0 20
v 20 0 20
v -12 0 19
v -11 0 19
v 11 0 19
v 12 0 19
v -13 0 16
v -12 0 16
v -14 0 15
v -13 0 15
v 12 0 15
v 13 0 15
v -15 0 14
v -14 0 14
v 13 0 14
v 14 0 14
v -16 0 13
v -15 0 13
v 14 0 13
v 15 0 13
v -19 0 12
v -16 0 12
v 15 0 12
v 19 0 12
v -20 0 11
v -19 0 11
v 19 0 11
v 20 0 11
v -20 0 -11
v -19 0 -11
v 19 0 -11
v 20 0 -11
v -19 0 -12
v -16 0 -12
v 16 0 -12
v 19 0 -12
v -16 0 -13
v -15 0 -13
v 15 0 -13
v 16 0 -13
v -15 0 -14
v -14 0 -14
v 14 0 -14
v 15 0 -14
v -14 0 -15
v -13 0 -15
v 13 0 -15
v 14 0 -15
v -13 0 -16
v -12 0 -16
v 12 0 -16
v 13 0 -16
v -12 0 -19
v -11 0 -19
v 11 0 -19
v 12 0 -19
v -20 0 -20
v -11 0 -20
v 11 0 -20
v 20 0 -20
v -19 1 19
v -12 1 19
v -11 1 19
v 11 1 19
v 12 1 19
v 19 1 19
v -13 1 16
v -12 1 16
v -11 1 16
v 11 1 16
v 12 1 16
v -14 1 15
v -13 1 15
v 12 1 15
v 13 1 15
v -15 1 14
v -14 1 14
v 13 1 14
v 14 1 14
v -16 1 13
v -15 1 13
v 14 1 13
v 15 1 13
v -19 1 12
v -16 1 12
v 15 1 12
v 16 1 12
v 19 1 12
v -19 1 11
v -16 1 11
v 16 1 11
v 19 1 11
v -19 1 -11
v -16 1 -11
v 16 1 -11
v 19 1 -11
v -19 1 -12
v -16 1 -12
v 16 1 -12
v 19 1 -12
v -16 1 -13
v -15 1 -13
v 15 1 -13
v 16 1 -13
v -15 1 -14
v -14 1 -14
v 14 1 -14
v 15 1 -14
v -14 1 -15
v -13 1 -15
v 13 1 -15
v 14 1 -15
v -13 1 -16
v -12 1 -16
v -11 1 -16
v 11 1 -16
v 12 1 -16
v 13 1 -16
v -19 1 -19
v -12 1 -19
v -11 1 -19
v 11 1 -19
v 12 1 -19
v 19 1 -19
v -20 3 20
v -11 3 20
v 11 3 20
v 20 3 20
v -19 3 19
v -12 3 19
v -11 3 19
v 11 3 19
v 12 3 19
v 19 3 19
v -12 3 16
v -11 3 16
v 11 3 16
v 12 3 16
v -19 3 12
v -16 3 12
v 16 3 12
v 19 3 12
v -20 3 11
v -19 3 11
v -16 3 11
v 16 3 11
v 19 3 11
v 20 3 11
v -20 3 -11
v -19 3 -11
v -16 3 -11
v 16 3 -11
v 19 3 -11
v 20 3 -11
v -19 3 -12
v -16 3 -12
v 16 3 -12
v 19 3 -12
v -12 3 -16
v -11 3 -16
v 11 3 -16
v 12 3 -16
v -19 3 -19
v -12 3 -19
v -11 3 -19
v 11 3 -19
v 12 3 -19
v 19 3 -19
v -20 3 -20
v -11 3 -20
v 11 3 -20
v 20 3 -20

# faces
f 5/1/1 2/1/1 1/1/1
f 6/2/1 3/2/1 2/2/1
f 6/1/1 2/1/1 5/1/1
f 7/3/1 4/3/1 3/3/1
f 7/2/1 3/2/1 6/2/1
f 8/3/1 4/3/1 7/3/1
f 13/1/1 10/1/1 9/1/1
f 14/1/1 10/1/1 13/1/1
f 15/3/1 12/3/1 11/3/1
f 16/3/1 12/3/1 15/3/1
f 21/5/1 18/5/1 17/5/1
f 22/5/1 18/5/1 21/5/1
f 23/4/1 20/4/1 19/4/1
f 24/4/1 20/4/1 23/4/1
f 29/5/1 26/5/1 25/5/1
f 30/5/1 26/5/1 29/5/1
f 31/4/1 28/4/1 27/4/1
f 32/4/1 28/4/1 31/4/1
f 39/5/1 34/5/1 33/5/1
f 40/5/1 34/5/1 39/5/1
f 41/2/1 36/2/1 35/2/1
f 42/2/1 36/2/1 41/2/1
f 43/4/1 38/4/1 37/4/1
f 44/4/1 38/4/1 43/4/1
f 45/1/2 46/1/2 51/1/2
f 51/1/2 46/1/2 52/1/2
f 47/2/2 48/2/2 53/2/2
f 53/2/2 48/2/2 54/2/2
f 49/3/2 50/3/2 55/3/2
f 55/3/2 50/3/2 56/3/2
f 57/1/2 58/1/2 61/1/2
f 61/1/2 58/1/2 62/1/2
f 59/3/2 60/3/2 63/3/2
f 63/3/2 60/3/2 64/3/2
f 65/1/2 66/1/2 69/1/2
f 69/1/2 66/1/2 70/1/2
f 67/3/2 68/3/2 71/3/2
f 71/3/2 68/3/2 72/3/2
f 73/5/2 74/5/2 77/5/2
f 77/5/2 74/5/2 78/5/2
f 75/4/2 76/4/2 79/4/2
f 79/4/2 76/4/2 80/4/2
f 81/5/2 82/5/2 85/5/2
f 82/2/2 83/2/2 86/2/2
f 85/5/2 82/5/2 86/5/2
f 83/4/2 84/4/2 87/4/2
f 86/2/2 83/2/2 87/2/2
f 87/4/2 84/4/2 88/4/2
f 91/1/3 90/1/3 89/1/3
f 92/1/3 90/1/3 91/1/3
f 93/2/3 92/2/3 91/2/3
f 94/2/3 92/2/3 93/2/3
f 95/5/3 94/5/3 93/5/3
f 96/5/3 94/5/3 95/5/3
f 99/1/3 98/1/3 97/1/3
f 100/1/3 98/1/3 99/1/3
f 103/5/3 102/5/3 101/5/3
f 104/5/3 102/5/3 103/5/3
f 107/3/3 106/3/3 105/3/3
f 108/3/3 106/3/3 107/3/3
f 111/4/3 110/4/3 109/4/3
f 112/4/3 110/4/3 111/4/3
f 115/3/3 114/3/3 113/3/3
f 116/3/3 114/3/3 115/3/3
f 119/4/3 118/4/3 117/4/3
f 120/4/3 118/4/3 119/4/3
f 123/3/3 122/3/3 121/3/3
f 124/3/3 122/3/3 123/3/3
f 127/2/3 126/2/3 125/2/3
f 128/2/3 126/2/3 127/2/3
f 131/4/3 130/4/3 129/4/3
f 132/4/3 130/4/3 131/4/3
f 133/1/4 134/1/4 135/1/4
f 135/1/4 134/1/4 136/1/4
f 137/2/4 138/2/4 139/2/4
f 139/2/4 138/2/4 140/2/4
f 141/5/4 142/5/4 143/5/4
f 143/5/4 142/5/4 144/5/4
f 145/1/4 146/1/4 147/1/4
f 147/1/4 146/1/4 148/1/4
f 149/5/4 150/5/4 151/5/4
f 151/5/4 150/5/4 152/5/4
f 153/1/4 154/1/4 155/1/4
f 155/1/4 154/1/4 156/1/4
f 157/5/4 158/5/4 159/5/4
f 159/5/4 158/5/4 160/5/4
f 161/3/4 162/3/4 163/3/4
f 163/3/4 162/3/4 164/3/4
f 165/4/4 166/4/4 167/4/4
f 167/4/4 166/4/4 168/4/4
f 169/3/4 170/3/4 171/3/4
f 171/3/4 170/3/4 172/3/4
f 171/2/4 172/2/4 173/2/4
f 173/2/4 172/2/4 174/2/4
f 173/4/4 174/4/4 175/4/4
f 175/4/4 174/4/4 176/4/4
f 181/1/5 178/1/5 177/1/5
f 182/2/5 179/2/5 178/2/5
f 182/1/5 178/1/5 181/1/5
f 183/5/5 180/5/5 179/5/5
f 183/2/5 179/2/5 182/2/5
f 184/5/5 180/5/5 183/5/5
f 185/1/5 181/1/5 177/1/5
f 186/2/5 182/2/5 181/2/5
f 186/1/5 181/1/5 185/1/5
f 186/2/5 183/2/5 182/2/5
f 186/2/5 184/2/5 183/2/5
f 187/1/5 185/1/5 177/1/5
f 188/2/5 186/2/5 185/2/5
f 188/1/5 185/1/5 187/1/5
f 189/2/5 184/2/5 186/2/5
f 189/2/5 186/2/5 188/2/5
f 189/5/5 180/5/5 184/5/5
f 190/5/5 180/5/5 189/5/5
f 191/1/5 187/1/5 177/1/5
f 192/2/5 188/2/5 187/2/5
f 192/1/5 187/1/5 191/1/5
f 192/2/5 189/2/5 188/2/5
f 192/2/5 190/2/5 189/2/5
f 193/5/5 180/5/5 190/5/5
f 193/2/5 190/2/5 192/2/5
f 194/5/5 180/5/5 193/5/5
f 195/1/5 191/1/5 177/1/5
f 196/2/5 192/2/5 191/2/5
f 196/1/5 191/1/5 195/1/5
f 196/2/5 193/2/5 192/2/5
f 196/2/5 194/2/5 193/2/5
f 197/5/5 180/5/5 194/5/5
f 197/2/5 194/2/5 196/2/5
f 198/5/5 180/5/5 197/5/5
f 199/1/5 195/1/5 177/1/5
f 200/2/5 196/2/5 195/2/5
f 200/1/5 195/1/5 199/1/5
f 200/2/5 197/2/5 196/2/5
f 200/2/5 198/2/5 197/2/5
f 201/5/5 180/5/5 198/5/5
f 201/2/5 198/2/5 200/2/5
f 202/5/5 180/5/5 201/5/5
f 203/1/5 199/1/5 177/1/5
f 204/2/5 200/2/5 199/2/5
f 204/1/5 199/1/5 203/1/5
f 204/2/5 201/2/5 200/2/5
f 204/2/5 202/2/5 201/2/5
f 205/5/5 180/5/5 202/5/5
f 205/2/5 202/2/5 204/2/5
f 206/5/5 180/5/5 205/5/5
f 207/2/5 204/2/5 203/2/5
f 207/2/5 205/2/5 204/2/5
f 207/2/5 206/2/5 205/2/5
f 208/2/5 206/2/5 207/2/5
f 209/2/5 206/2/5 208/2/5
f 210/2/5 206/2/5 209/2/5
f 211/3/5 208/3/5 207/3/5
f 211/2/5 209/2/5 208/2/5
f 212/2/5 209/2/5 211/2/5
f 213/2/5 209/2/5 212/2/5
f 214/4/5 210/4/5 209/4/5
f 214/2/5 209/2/5 213/2/5
f 215/2/5 213/2/5 212/2/5
f 215/3/5 212/3/5 211/3/5
f 216/2/5 213/2/5 215/2/5
f 217/2/5 213/2/5 216/2/5
f 218/4/5 214/4/5 213/4/5
f 218/2/5 213/2/5 217/2/5
f 219/2/5 217/2/5 216/2/5
f 219/3/5 216/3/5 215/3/5
f 220/2/5 217/2/5 219/2/5
f 221/2/5 217/2/5 220/2/5
f 222/4/5 218/4/5 217/4/5
f 222/2/5 217/2/5 221/2/5
f 223/2/5 221/2/5 220/2/5
f 223/3/5 220/3/5 219/3/5
f 224/2/5 221/2/5 223/2/5
f 225/2/5 221/2/5 224/2/5
f 226/4/5 222/4/5 221/4/5
f 226/2/5 221/2/5 225/2/5
f 227/2/5 225/2/5 224/2/5
f 227/3/5 224/3/5 223/3/5
f 228/2/5 225/2/5 227/2/5
f 229/2/5 225/2/5 228/2/5
f 230/4/5 226/4/5 225/4/5
f 230/2/5 225/2/5 229/2/5
f 231/2/5 229/2/5 228/2/5
f 231/3/5 228/3/5 227/3/5
f 232/2/5 229/2/5 231/2/5
f 233/2/5 229/2/5 232/2/5
f 234/4/5 230/4/5 229/4/5
f 234/2/5 229/2/5 233/2/5
f 235/3/5 211/3/5 207/3/5
f 235/3/5 215/3/5 211/3/5
f 235/3/5 219/3/5 215/3/5
f 235/3/5 232/3/5 231/3/5
f 235/3/5 231/3/5 227/3/5
f 235/3/5 223/3/5 219/3/5
f 235/3/5 227/3/5 223/3/5
f 236/2/5 233/2/5 232/2/5
f 236/3/5 232/3/5 235/3/5
f 237/4/5 234/4/5 233/4/5
f 237/2/5 233/2/5 236/2/5
f 238/4/5 210/4/5 214/4/5
f 238/4/5 234/4/5 237/4/5
f 238/4/5 230/4/5 234/4/5
f 238/4/5 226/4/5 230/4/5
f 238/4/5 222/4/5 226/4/5
f 238/4/5 214/4/5 218/4/5
f 238/4/5 218/4/5 222/4/5
f 239/1/6 240/1/6 245/1/6
f 245/1/6 240/1/6 246/1/6
f 241/2/6 242/2/6 247/2/6
f 247/2/6 242/2/6 248/2/6
f 243/5/6 244/5/6 249/5/6
f 239/1/6 245/1/6 250/1/6
f 247/2/6 248/2/6 251/2/6
f 250/1/6 245/1/6 251/1/6
f 245/2/6 246/2/6 251/2/6
f 248/2/6 249/2/6 251/2/6
f 246/2/6 247/2/6 251/2/6
f 249/5/6 244/5/6 252/5/6
f 251/2/6 249/2/6 252/2/6
f 252/5/6 244/5/6 253/5/6
f 239/1/6 250/1/6 254/1/6
f 250/2/6 251/2/6 255/2/6
f 254/1/6 250/1/6 255/1/6
f 251/2/6 252/2/6 255/2/6
f 252/2/6 253/2/6 255/2/6
f 253/5/6 244/5/6 256/5/6
f 255/2/6 253/2/6 256/2/6
f 256/5/6 244/5/6 257/5/6
f 239/1/6 254/1/6 258/1/6
f 254/2/6 255/2/6 259/2/6
f 258/1/6 254/1/6 259/1/6
f 255/2/6 256/2/6 259/2/6
f 256/2/6 257/2/6 259/2/6
f 257/5/6 244/5/6 260/5/6
f 259/2/6 257/2/6 260/2/6
f 260/5/6 244/5/6 261/5/6
f 239/1/6 258/1/6 262/1/6
f 258/2/6 259/2/6 263/2/6
f 262/1/6 258/1/6 263/1/6
f 259/2/6 260/2/6 263/2/6
f 260/2/6 261/2/6 263/2/6
f 261/5/6 244/5/6 264/5/6
f 263/2/6 261/2/6 264/2/6
f 264/5/6 244/5/6 265/5/6
f 265/5/6 244/5/6 266/5/6
f 263/2/6 264/2/6 268/2/6
f 264/2/6 265/2/6 268/2/6
f 268/2/6 265/2/6 269/2/6
f 267/2/6 268/2/6 271/2/6
f 269/2/6 270/2/6 271/2/6
f 268/2/6 269/2/6 271/2/6
f 271/2/6 270/2/6 272/2/6
f 272/2/6 270/2/6 273/2/6
f 273/2/6 270/2/6 274/2/6
f 272/2/6 273/2/6 276/2/6
f 276/2/6 273/2/6 277/2/6
f 275/3/6 276/3/6 279/3/6
f 276/2/6 277/2/6 279/2/6
f 279/2/6 277/2/6 280/2/6
f 280/2/6 277/2/6 281/2/6
f 277/4/6 278/4/6 282/4/6
f 281/2/6 277/2/6 282/2/6
f 280/2/6 281/2/6 283/2/6
f 279/3/6 280/3/6 283/3/6
f 283/2/6 281/2/6 284/2/6
f 284/2/6 281/2/6 285/2/6
f 281/4/6 282/4/6 286/4/6
f 285/2/6 281/2/6 286/2/6
f 284/2/6 285/2/6 287/2/6
f 283/3/6 284/3/6 287/3/6
f 287/2/6 285/2/6 288/2/6
f 288/2/6 285/2/6 289/2/6
f 285/4/6 286/4/6 290/4/6
f 289/2/6 285/2/6 290/2/6
f 288/2/6 289/2/6 291/2/6
f 287/3/6 288/3/6 291/3/6
f 291/2/6 289/2/6 292/2/6
f 292/2/6 289/2/6 293/2/6
f 293/2/6 289/2/6 294/2/6
f 294/2/6 289/2/6 295/2/6
f 289/4/6 290/4/6 296/4/6
f 295/2/6 289/2/6 296/2/6
f 275/3/6 279/3/6 297/3/6
f 279/3/6 283/3/6 297/3/6
f 283/3/6 287/3/6 297/3/6
f 291/3/6 292/3/6 297/3/6
f 287/3/6 291/3/6 297/3/6
f 297/3/6 292/3/6 298/3/6
f 293/2/6 294/2/6 299/2/6
f 299/2/6 294/2/6 300/2/6
f 295/4/6 296/4/6 301/4/6
f 282/4/6 278/4/6 302/4/6
f 301/4/6 296/4/6 302/4/6
f 296/4/6 290/4/6 302/4/6
f 286/4/6 282/4/6 302/4/6
f 290/4/6 286/4/6 302/4/6
f 303/1/6 304/1/6 307/1/6
f 307/1/6 304/1/6 308/1/6
f 304/2/6 305/2/6 309/2/6
f 308/1/6 304/1/6 309/1/6
f 305/5/6 306/5/6 310/5/6
f 309/2/6 305/2/6 310/2/6
f 310/5/6 306/5/6 311/5/6
f 311/5/6 306/5/6 312/5/6
f 308/1/6 309/1/6 313/1/6
f 313/1/6 309/1/6 314/1/6
f 310/5/6 311/5/6 315/5/6
f 315/5/6 311/5/6 316/5/6
f 303/1/6 307/1/6 317/1/6
f 312/5/6 306/5/6 320/5/6
f 303/1/6 317/1/6 321/1/6
f 317/1/6 318/1/6 321/1/6
f 321/1/6 318/1/6 322/1/6
f 322/1/6 318/1/6 323/1/6
f 319/5/6 320/5/6 324/5/6
f 320/5/6 306/5/6 325/5/6
f 324/5/6 320/5/6 325/5/6
f 325/5/6 306/5/6 326/5/6
f 321/2/6 322/2/6 327/2/6
f 327/2/6 322/2/6 328/2/6
f 325/2/6 326/2/6 331/2/6
f 331/2/6 326/2/6 332/2/6
f 328/3/6 329/3/6 333/3/6
f 327/3/6 328/3/6 333/3/6
f 333/3/6 329/3/6 334/3/6
f 331/4/6 332/4/6 335/4/6
f 330/4/6 331/4/6 335/4/6
f 335/4/6 332/4/6 336/4/6
f 327/3/6 333/3/6 341/3/6
f 337/3/6 338/3/6 342/3/6
f 342/3/6 338/3/6 343/3/6
f 339/4/6 340/4/6 344/4/6
f 344/4/6 340/4/6 345/4/6
f 336/4/6 332/4/6 346/4/6
f 342/3/6 343/3/6 347/3/6
f 327/3/6 341/3/6 347/3/6
f 341/3/6 342/3/6 347/3/6
f 343/2/6 344/2/6 348/2/6
f 347/3/6 343/3/6 348/3/6
f 344/4/6 345/4/6 349/4/6
f 348/2/6 344/2/6 349/2/6
f 345/4/6 346/4/6 349/4/6
f 346/4/6 332/4/6 350/4/6
f 349/4/6 346/4/6 350/4/6
